<?xml version="1.0" encoding="utf-8"?>
<!-- Generator: Adobe Illustrator 25.0.0, SVG Export Plug-In . SVG Version: 6.00 Build 0)  -->
<svg version="1.1" id="Layer_1" xmlns="http://www.w3.org/2000/svg" xmlns:xlink="http://www.w3.org/1999/xlink" x="0px" y="0px"
	 viewBox="0 0 1200 398.7" style="enable-background:new 0 0 1200 398.7;" xml:space="preserve">
<style type="text/css">
	.st0{fill:#FFFFFF;}
</style>
<g id="_x33_90190be-3654-4bbf-bb9b-4c48e6acc8ca">
	<g id="_x37_623466d-c4fe-450f-add7-8d37d6104137">
		<path class="st0" d="M539.8,176.1c-2.7,2.2-5.4,3.8-8.1,5.4c-3.2,1.6-6.5,2.7-9.7,3.2c-3.8,0.5-8.1,1.1-11.9,1.1
			c-6.5,0-12.5-1.1-18.4-3.8c-5.4-2.2-10.8-6-15.2-10.3c-4.3-4.3-7.6-9.2-9.7-14.6c-2.2-6-3.8-11.9-3.8-18.4l0,0
			c0-6.5,1.1-12.5,3.8-18.4c2.2-5.4,5.4-10.8,9.7-15.2c4.3-4.3,9.2-7.6,15.2-10.3c6-2.7,12.5-3.8,19.5-3.8c3.8,0,7.6,0.5,11.9,1.1
			c3.2,0.5,6.5,1.6,9.7,2.7c2.7,1.1,5.4,2.7,8.1,4.3c2.7,1.6,4.9,3.8,7,6l-13,14.6c-3.2-3.2-7-5.4-10.8-7.6
			c-3.8-1.6-8.1-2.7-12.5-2.7c-3.8,0-7.6,0.5-10.8,2.2c-3.2,1.6-6,3.8-8.7,6c-2.2,2.7-4.3,6-5.4,9.2c-1.1,3.2-2.2,7-2.2,10.8l0,0
			c0,3.8,0.5,7.6,2.2,10.8c1.1,3.2,3.2,6.5,5.4,9.2c4.9,5.4,11.9,8.7,19,8.7c4.3,0,9.2-1.1,13-2.7c3.8-2.2,7.6-4.9,10.8-7.6l13,13
			C545.2,171.8,542.5,174,539.8,176.1z"/>
		<path class="st0" d="M630.8,184.3l-8.1-20.6h-38.4l-8.1,20.6h-20.6l39-91.5h18.4l39,91.5H630.8z M603.2,116.6
			c-3.8,9.7-8.1,19.5-11.9,29.8h24.4C611.3,136.1,607.5,126.3,603.2,116.6z"/>
		<path class="st0" d="M729.4,169.1c-1.6,3.2-3.8,6.5-7,8.7c-3.2,2.2-6.5,4.3-10.3,5.4c-4.3,1.1-8.7,2.2-13.5,1.6
			c-7,0-14.1-1.1-20.6-3.8c-6.5-2.2-13-6-18.4-10.8l11.4-14.1c3.8,3.2,8.1,6,13,8.1c4.3,2.2,9.2,3.2,14.6,2.7c3.2,0,6.5-0.5,9.7-2.2
			c2.2-1.1,3.2-3.8,3.2-6.5l0,0c0-1.1,0-2.2-0.5-3.2c-0.5-1.1-1.6-2.2-2.7-2.7c-1.6-1.1-3.2-2.2-5.4-2.7c-2.2-1.1-5.4-1.6-9.2-2.7
			c-4.3-1.1-8.7-2.2-12.5-3.8c-3.2-1.1-6.5-3.2-9.7-5.4c-2.7-2.2-4.9-4.9-6-7.6c-1.6-3.8-2.2-7.6-2.2-11.4l0,0
			c0-3.8,0.5-7.6,2.2-11.4c1.6-3.2,3.8-6.5,6.5-8.7c2.7-2.2,6.5-4.3,9.7-5.4c4.3-1.1,8.7-2.2,13-2.2c6.5,0,12.5,1.1,18.4,3.2
			c5.4,1.6,10.8,4.3,15.2,8.1L718,117.6c-3.8-2.7-7.6-4.9-11.9-6.5c-3.8-1.6-7.6-2.2-11.9-2.2c-3.2,0-6,0.5-8.7,2.2
			c-1.6,1.1-2.7,3.2-2.7,5.4l0,0c0,1.1,0,2.7,1.1,3.8c0.5,1.1,1.6,2.2,3.2,2.7c2.2,1.1,3.8,1.6,6,2.7c2.7,0.5,6,1.6,9.7,2.7
			c4.3,1.1,8.1,2.2,12.5,4.3c3.2,1.1,6.5,3.2,9.2,5.4c2.2,2.2,4.3,4.3,5.4,7.6c1.6,3.2,2.2,6.5,2.2,10.3l0,0
			C731.5,161.5,731,165.3,729.4,169.1z"/>
		<path class="st0" d="M822,176.1c-2.7,2.2-5.4,3.8-8.1,5.4c-3.2,1.6-6.5,2.7-9.7,3.2c-3.8,0.5-8.1,1.1-11.9,1.1
			c-6.5,0-12.5-1.1-18.4-3.8c-5.4-2.2-10.8-6-15.2-10.3c-4.3-4.3-7.6-9.2-9.7-14.6c-2.2-6-3.8-11.9-3.2-18.4l0,0
			c0-6.5,1.1-12.5,3.2-18.4c2.2-5.4,5.4-10.8,9.7-15.2c4.3-4.3,9.2-7.6,15.2-10.3s12.5-3.8,19.5-3.8c3.8,0,7.6,0.5,11.4,1.1
			c3.2,0.5,6.5,1.6,9.7,2.7c2.7,1.1,5.4,2.7,8.1,4.3c2.7,1.6,4.9,3.8,7,6c-4.3,4.9-8.7,9.7-13,14.6c-3.2-3.2-7-5.4-10.8-7.6
			c-3.8-1.6-8.1-2.7-12.5-2.7c-3.8,0-7.6,0.5-10.8,2.2c-3.2,1.6-6,3.2-8.1,6c-2.2,2.7-4.3,6-5.4,9.2c-1.1,3.2-2.2,7-2.2,10.8l0,0
			c0,3.8,0.5,7.6,2.2,10.8c1.1,3.2,3.2,6.5,5.4,9.2c4.9,5.4,11.9,8.7,19,8.7c4.3,0,9.2-1.1,13-2.7c3.8-2.2,7.6-4.9,10.8-7.6l13,13
			C826.8,171.8,824.1,174,822,176.1z"/>
		<path class="st0" d="M912.9,184.3l-8.7-20.6h-38.4l-8.1,20.6h-20.6l39-91.5h18.4l39,91.5H912.9z M885.3,116.6
			c-4.3,9.7-8.1,19.5-11.9,29.8h24.4C892.9,136.6,889.1,126.3,885.3,116.6z"/>
		<path class="st0" d="M1027.7,156.6c-2.2,5.4-5.4,10.3-9.7,14.6c-4.3,4.3-9.7,7.6-15.2,9.7c-6.5,2.2-13,3.8-19.5,3.2h-35.7v-91
			h35.7c6.5,0,13.5,1.1,19.5,3.2s10.8,5.4,15.2,9.7c4.3,4.3,7.6,9.2,9.7,14.6s3.8,11.9,3.2,17.9l0,0
			C1031.5,144.7,1030.4,150.7,1027.7,156.6z M1010.4,138.8c0-3.8-0.5-7.6-2.2-10.8c-2.7-6.5-7.6-11.9-14.1-14.1
			c-3.8-1.6-7.6-2.2-11.4-2.2h-15.7v54.7h15.7c3.8,0,7.6-0.5,11.4-2.2c3.2-1.1,6-3.2,8.7-5.4c2.2-2.7,4.3-5.4,5.4-8.7
			c1.6-3.2,2.2-7,2.2-10.8V138.8z"/>
		<path class="st0" d="M1050.5,184.3v-91h20v91H1050.5z"/>
		<path class="st0" d="M1161,184.3l-8.1-20.6h-38.4c-2.7,6.5-5.4,13.5-8.1,20.6h-20.6l39-91.5h18.4l39,91.5H1161z M1133.3,116.6
			c-3.8,9.7-8.1,19.5-11.9,29.8h24.4C1141.5,136.1,1137.1,126.3,1133.3,116.6L1133.3,116.6z"/>
		<path class="st0" d="M547.4,286.6c-2.2,5.4-5.4,10.3-9.7,14.6s-9.7,7.6-15.2,9.7c-6.5,2.2-13,3.8-19.5,3.2h-35.7v-91H503
			c6.5,0,13.5,1.1,19.5,3.2c6,2.2,10.8,5.4,15.2,9.7c4.3,4.3,7.6,9.2,9.7,14.6c2.2,5.4,3.8,11.9,3.8,17.9l0,0
			C551.2,274.7,550.1,280.6,547.4,286.6z M530.1,268.7c0-3.8-0.5-7.6-2.2-10.8c-1.1-3.2-3.2-6-5.4-8.7c-2.7-2.7-5.4-4.3-8.7-5.4
			c-3.8-1.6-7.6-2.2-11.4-2.2h-15.2v54.7H503c3.8,0,7.6-0.5,11.4-2.2c3.2-1.1,6-3.2,8.7-5.4c2.2-2.7,4.3-5.4,5.4-8.7
			c1.6-3.2,2.2-7,2.2-10.8L530.1,268.7z"/>
		<path class="st0" d="M569.6,314.2v-91h20v91C589.6,314.2,569.6,314.2,569.6,314.2z"/>
		<path class="st0" d="M678.5,311.5c-7,2.7-14.6,4.3-22.2,4.3c-6.5,0-13-1.1-19.5-3.8c-5.4-2.2-10.8-5.4-15.2-9.7
			s-7.6-9.2-10.3-14.6c-2.2-6-3.8-12.5-3.2-19l0,0c0-6.5,1.1-12.5,3.8-18.4c2.2-5.4,6-10.8,9.7-15.2c4.3-4.3,9.2-7.6,15.2-10.3
			s12.5-3.8,19-3.8c3.8,0,7,0,10.8,1.1c3.2,0.5,6.5,1.1,9.2,2.7c2.7,1.1,5.4,2.2,8.1,3.8c2.7,1.6,4.9,3.2,7,5.4
			c-4.3,4.9-8.7,10.3-12.5,15.2c-1.6-1.6-3.8-2.7-5.4-3.8c-1.6-1.1-3.8-2.2-5.4-2.7c-2.2-0.5-3.8-1.6-6-1.6c-2.2-0.5-4.9-0.5-7-0.5
			c-3.8,0-7,0.5-10.3,2.2c-3.2,1.6-6,3.8-8.1,6c-2.2,2.7-4.3,5.4-5.4,9.2c-1.1,3.2-2.2,7-2.2,10.8l0,0c0,3.8,0.5,7.6,2.2,11.4
			c1.1,3.2,3.2,6.5,6,9.2c2.7,2.7,5.4,4.9,8.7,6c3.8,1.6,7.6,2.2,11.4,2.2c6.5,0,13.5-1.6,19-5.4v-13h-20.6v-17.3h39.5v39.5
			C689.8,305.6,684.4,308.8,678.5,311.5z"/>
		<path class="st0" d="M715.3,314.2v-91h20v91C735.3,314.2,715.3,314.2,715.3,314.2z"/>
		<path class="st0" d="M799.2,241.7v72.6h-20v-72.6h-27.6v-18.4h75.3v18.4H799.2z"/>
		<path class="st0" d="M910.2,314.2l-8.1-20.6h-38.4l-8.1,20.6H835l39-91.5h18.4l39,91.5H910.2z M882.6,246.5
			c-4.3,9.7-8.1,19.5-11.9,29.8h24.4C890.7,266.6,886.4,256.3,882.6,246.5z"/>
		<path class="st0" d="M944.9,314.2v-91h20v73.1h45.5v17.9C1010.4,314.2,944.9,314.2,944.9,314.2z"/>
		<path class="st0" d="M194.9,125.2c-8.1,10.3-17.3,20-26.5,29.2c-15.7,16.2-3.2,34.7,19.5,36.3c19,1.6,39,6.5,69.9,10.3
			c10.8,1.1-33.6,21.1-39,19.5c-58.5-17.9-109.4,16.2-186.8,41.2c-2.2,0.5-3.8,3.2-3.2,6l0,0c37.9,100.2,149.5,150.5,249.6,113.2
			c53.6-20,95.3-62.8,114.3-117c0.5-2.2-0.5-4.9-2.7-6l0,0c-69.3-21.7-128.3-67.7-166.3-130c-2.7-4.3-7-7-11.9-7
			C203,120.4,197,122,194.9,125.2z"/>
		<path class="st0" d="M205.2,76.5L205.2,76.5c1.6-6,22.7-9.7,26-4.9c0.5,0.5,0.5,1.1,0.5,1.6c16.8,77.4,79.6,140.3,166.3,171.7
			c24.9-104-39-208.5-143-233.4s-208.5,39-233.4,143c-7,29.2-7,59.6-0.5,88.8C100.6,202.1,164,145.3,205.2,76.5z"/>
	</g>
</g>
</svg>
